<?xml version="1.0" standalone="no"?>
<!DOCTYPE svg PUBLIC "-//W3C//DTD SVG 20010904//EN"
 "http://www.w3.org/TR/2001/REC-SVG-20010904/DTD/svg10.dtd">
<svg version="1.0" xmlns="http://www.w3.org/2000/svg"
 width="192.000000pt" height="192.000000pt" viewBox="0 0 192.000000 192.000000"
 preserveAspectRatio="xMidYMid meet">
<metadata>
Created by potrace 1.11, written by Peter Selinger 2001-2013
</metadata>
<g transform="translate(0.000000,192.000000) scale(0.100000,-0.100000)"
fill="#000000" stroke="none">
<path d="M0 960 l0 -960 960 0 c578 0 960 4 960 9 0 5 -15 13 -32 16 -18 4
-52 21 -74 37 -28 20 -78 39 -158 59 -64 16 -131 38 -149 49 -17 11 -42 20
-54 20 -30 0 -83 47 -83 73 0 12 18 48 40 80 21 32 49 84 62 115 24 60 23 40
15 407 -1 56 4 96 17 134 14 42 16 55 6 61 -9 6 -8 11 7 18 15 8 19 21 19 49
-2 31 -6 38 -26 43 -22 5 -25 11 -22 51 1 24 3 85 4 134 2 93 -2 106 -69 229
-19 35 -67 82 -105 102 -16 8 -28 19 -28 24 0 6 -7 10 -15 10 -8 0 -31 11 -51
25 -20 14 -44 25 -54 25 -9 0 -20 3 -24 8 -10 10 -48 13 -123 12 -40 -1 -63 3
-63 10 0 7 -6 8 -16 2 -9 -5 -32 -6 -52 -1 -26 5 -39 4 -50 -7 -9 -10 -18 -12
-24 -6 -6 6 -24 2 -48 -9 -22 -11 -46 -19 -55 -19 -8 0 -15 -6 -15 -14 0 -8
-6 -13 -14 -12 -8 0 -15 -3 -15 -8 0 -11 -71 -37 -83 -30 -4 3 -8 -2 -8 -10 0
-9 -5 -16 -11 -16 -5 0 -7 -5 -3 -12 5 -7 3 -8 -5 -3 -9 5 -10 10 -2 18 17 17
13 26 -9 20 -11 -3 -18 -9 -15 -13 7 -11 -12 -23 -25 -15 -14 8 -1 33 21 40
10 4 19 11 19 16 0 6 -4 7 -10 4 -5 -3 -10 0 -10 8 0 8 -7 20 -15 27 -17 14
-19 7 -5 -20 6 -12 7 -21 1 -25 -15 -9 -31 28 -20 47 6 11 4 21 -6 32 -19 18
-20 33 -2 17 8 -6 18 -7 22 -3 5 4 5 -1 2 -11 -6 -16 -5 -16 17 -2 16 11 22
23 20 40 -1 14 2 25 7 25 5 0 9 4 9 9 0 18 -36 -1 -54 -27 -10 -15 -15 -19
-12 -8 4 10 1 25 -5 32 -10 12 -8 13 6 8 17 -7 45 17 45 37 0 5 -121 8 -270 9
l-270 0 0 -960z m450 725 c0 -17 -25 -20 -35 -5 -3 6 1 7 9 4 9 -3 16 -1 16 5
0 6 2 11 5 11 3 0 5 -7 5 -15z m40 -55 c0 -5 -2 -10 -4 -10 -3 0 -8 5 -11 10
-3 6 -1 10 4 10 6 0 11 -4 11 -10z m-85 -130 c3 -5 1 -10 -4 -10 -6 0 -11 5
-11 10 0 6 2 10 4 10 3 0 8 -4 11 -10z m869 -446 c9 -3 16 -12 16 -19 0 -25
-15 -24 -27 1 -12 26 -12 27 11 18z m152 -61 c-3 -3 -15 5 -28 16 -19 18 -20
23 -9 31 11 6 18 1 28 -17 7 -14 11 -28 9 -30z m-929 15 c-3 -8 -6 -5 -6 6 -1
11 2 17 5 13 3 -3 4 -12 1 -19z m908 -197 c-3 -24 -34 -39 -44 -22 -13 20 19
62 35 47 6 -6 11 -17 9 -25z m-365 -6 c0 -8 -4 -15 -10 -15 -5 0 -7 7 -4 15 4
8 8 15 10 15 2 0 4 -7 4 -15z m50 -270 c0 -17 -6 -25 -17 -25 -10 0 -28 -3
-39 -6 -19 -5 -21 -2 -16 21 2 15 10 24 17 22 6 -3 18 -1 26 4 23 14 29 11 29
-16z m45 8 c-2 -10 -4 -21 -4 -25 -2 -14 -19 -8 -25 8 -7 19 1 34 19 34 7 0
12 -8 10 -17z"/>
<path d="M620 1901 c0 -6 5 -13 10 -16 6 -3 10 1 10 9 0 9 -4 16 -10 16 -5 0
-10 -4 -10 -9z"/>
<path d="M530 1779 c0 -5 5 -7 10 -4 6 3 10 8 10 11 0 2 -4 4 -10 4 -5 0 -10
-5 -10 -11z"/>
</g>
</svg>
